<mxfile host="app.diagrams.net" modified="2023-11-27T22:37:13.053Z" agent="Mozilla/5.0 (Macintosh; Intel Mac OS X 10_15_7) AppleWebKit/537.36 (KHTML, like Gecko) Chrome/116.0.0.0 Safari/537.36" etag="n-kX1btoOx6sVso_0TpN" version="22.1.4" type="device">
  <diagram name="Page-1" id="C_09Gu7f7QqJAxleukYQ">
    <mxGraphModel dx="1242" dy="790" grid="1" gridSize="10" guides="1" tooltips="1" connect="1" arrows="1" fold="1" page="1" pageScale="1" pageWidth="827" pageHeight="1169" math="0" shadow="0">
      <root>
        <mxCell id="0" />
        <mxCell id="1" parent="0" />
        <mxCell id="nguoUykQNRSU8UTbQWAM-4" value="" style="group" vertex="1" connectable="0" parent="1">
          <mxGeometry x="226" y="190" width="349.93" height="115" as="geometry" />
        </mxCell>
        <mxCell id="nguoUykQNRSU8UTbQWAM-1" value="" style="ellipse;shape=cloud;whiteSpace=wrap;html=1;fillColor=#428BCA;strokeColor=#6c8ebf;" vertex="1" parent="nguoUykQNRSU8UTbQWAM-4">
          <mxGeometry width="349.93" height="115" as="geometry" />
        </mxCell>
        <mxCell id="nguoUykQNRSU8UTbQWAM-2" value="" style="shape=callout;whiteSpace=wrap;html=1;perimeter=calloutPerimeter;flipV=0;flipH=1;size=20;position=0.17;position2=0.17;strokeColor=#FFFFFF;fillColor=#428BCA;strokeWidth=3;" vertex="1" parent="nguoUykQNRSU8UTbQWAM-4">
          <mxGeometry x="98.5718309859155" y="38.336071428571444" width="49.28591549295775" height="38.33607142857143" as="geometry" />
        </mxCell>
        <mxCell id="nguoUykQNRSU8UTbQWAM-3" value="&lt;font color=&quot;#ffffff&quot; style=&quot;border-color: var(--border-color); font-size: 26px;&quot;&gt;ThingSpeak&lt;/font&gt;" style="text;html=1;align=center;verticalAlign=middle;resizable=0;points=[];autosize=1;strokeColor=none;fillColor=none;" vertex="1" parent="nguoUykQNRSU8UTbQWAM-4">
          <mxGeometry x="147.85774647887325" y="41.07142857142857" width="160" height="40" as="geometry" />
        </mxCell>
        <mxCell id="nguoUykQNRSU8UTbQWAM-9" value="" style="verticalLabelPosition=bottom;html=1;verticalAlign=top;align=center;strokeColor=none;fillColor=#66B2FF;shape=mxgraph.azure.mobile;pointerEvents=1;" vertex="1" parent="1">
          <mxGeometry x="337" y="20" width="60" height="90" as="geometry" />
        </mxCell>
        <mxCell id="nguoUykQNRSU8UTbQWAM-12" value="" style="group" vertex="1" connectable="0" parent="1">
          <mxGeometry x="510" y="370" width="216.47" height="80" as="geometry" />
        </mxCell>
        <mxCell id="nguoUykQNRSU8UTbQWAM-8" value="&lt;blockquote style=&quot;margin: 0 0 0 40px; border: none; padding: 0px;&quot;&gt;&lt;blockquote style=&quot;margin: 0 0 0 40px; border: none; padding: 0px;&quot;&gt;Raspberry PI 4&lt;/blockquote&gt;&lt;blockquote style=&quot;margin: 0 0 0 40px; border: none; padding: 0px;&quot;&gt;(Server)&lt;/blockquote&gt;&lt;/blockquote&gt;" style="rounded=0;whiteSpace=wrap;html=1;" vertex="1" parent="nguoUykQNRSU8UTbQWAM-12">
          <mxGeometry width="216.47" height="80" as="geometry" />
        </mxCell>
        <mxCell id="nguoUykQNRSU8UTbQWAM-11" value="" style="shape=datastore;whiteSpace=wrap;html=1;fillColor=#bac8d3;strokeColor=#23445d;" vertex="1" parent="nguoUykQNRSU8UTbQWAM-12">
          <mxGeometry x="18.823478260869567" y="11.76470588235294" width="56.4704347826087" height="56.470588235294116" as="geometry" />
        </mxCell>
        <mxCell id="nguoUykQNRSU8UTbQWAM-13" value="" style="group" vertex="1" connectable="0" parent="1">
          <mxGeometry x="210" y="370" width="210" height="80" as="geometry" />
        </mxCell>
        <mxCell id="nguoUykQNRSU8UTbQWAM-7" value="Raspberry Pico WH&amp;nbsp; &amp;nbsp;&lt;br&gt;(IOT Device)&amp;nbsp; &amp;nbsp; &amp;nbsp; &amp;nbsp;&amp;nbsp;" style="rounded=0;whiteSpace=wrap;html=1;fillColor=#008a00;fontColor=#ffffff;strokeColor=#005700;align=right;" vertex="1" parent="nguoUykQNRSU8UTbQWAM-13">
          <mxGeometry width="210" height="80" as="geometry" />
        </mxCell>
        <mxCell id="nguoUykQNRSU8UTbQWAM-10" value="" style="sketch=0;outlineConnect=0;dashed=0;verticalLabelPosition=bottom;verticalAlign=top;align=center;html=1;fontSize=12;fontStyle=0;aspect=fixed;pointerEvents=1;shape=mxgraph.aws4.iot_thing_temperature_humidity_sensor;" vertex="1" parent="nguoUykQNRSU8UTbQWAM-13">
          <mxGeometry x="10" y="10" width="60" height="60" as="geometry" />
        </mxCell>
        <mxCell id="nguoUykQNRSU8UTbQWAM-14" value="" style="shape=flexArrow;endArrow=classic;html=1;rounded=0;entryX=0.403;entryY=0.891;entryDx=0;entryDy=0;entryPerimeter=0;exitX=0.75;exitY=0;exitDx=0;exitDy=0;" edge="1" parent="1" source="nguoUykQNRSU8UTbQWAM-7" target="nguoUykQNRSU8UTbQWAM-1">
          <mxGeometry width="50" height="50" relative="1" as="geometry">
            <mxPoint x="390" y="420" as="sourcePoint" />
            <mxPoint x="440" y="370" as="targetPoint" />
          </mxGeometry>
        </mxCell>
        <mxCell id="nguoUykQNRSU8UTbQWAM-15" value="" style="shape=flexArrow;endArrow=classic;html=1;rounded=0;entryX=0.5;entryY=1;entryDx=0;entryDy=0;entryPerimeter=0;exitX=0.4;exitY=0.1;exitDx=0;exitDy=0;exitPerimeter=0;strokeColor=none;startArrow=block;" edge="1" parent="1" source="nguoUykQNRSU8UTbQWAM-1" target="nguoUykQNRSU8UTbQWAM-9">
          <mxGeometry width="50" height="50" relative="1" as="geometry">
            <mxPoint x="390" y="420" as="sourcePoint" />
            <mxPoint x="440" y="370" as="targetPoint" />
          </mxGeometry>
        </mxCell>
        <mxCell id="nguoUykQNRSU8UTbQWAM-17" value="" style="shape=flexArrow;endArrow=classic;startArrow=classic;html=1;rounded=0;entryX=0.5;entryY=1;entryDx=0;entryDy=0;entryPerimeter=0;exitX=0.4;exitY=0.1;exitDx=0;exitDy=0;exitPerimeter=0;" edge="1" parent="1" source="nguoUykQNRSU8UTbQWAM-1">
          <mxGeometry width="100" height="100" relative="1" as="geometry">
            <mxPoint x="430" y="450" as="sourcePoint" />
            <mxPoint x="367" y="110" as="targetPoint" />
          </mxGeometry>
        </mxCell>
        <mxCell id="nguoUykQNRSU8UTbQWAM-18" value="" style="shape=flexArrow;endArrow=classic;html=1;rounded=0;entryX=0;entryY=0.5;entryDx=0;entryDy=0;exitX=1;exitY=0.5;exitDx=0;exitDy=0;" edge="1" parent="1" source="nguoUykQNRSU8UTbQWAM-7" target="nguoUykQNRSU8UTbQWAM-8">
          <mxGeometry width="50" height="50" relative="1" as="geometry">
            <mxPoint x="308" y="380" as="sourcePoint" />
            <mxPoint x="411" y="272" as="targetPoint" />
          </mxGeometry>
        </mxCell>
        <mxCell id="nguoUykQNRSU8UTbQWAM-20" value="" style="shape=flexArrow;endArrow=classic;startArrow=classic;html=1;rounded=0;entryX=0.5;entryY=1;entryDx=0;entryDy=0;entryPerimeter=0;exitX=0.75;exitY=0;exitDx=0;exitDy=0;" edge="1" parent="1" source="nguoUykQNRSU8UTbQWAM-8" target="nguoUykQNRSU8UTbQWAM-19">
          <mxGeometry width="100" height="100" relative="1" as="geometry">
            <mxPoint x="360" y="450" as="sourcePoint" />
            <mxPoint x="460" y="350" as="targetPoint" />
          </mxGeometry>
        </mxCell>
        <mxCell id="nguoUykQNRSU8UTbQWAM-28" value="" style="group;labelBackgroundColor=default;fillColor=none;" vertex="1" connectable="0" parent="1">
          <mxGeometry x="318.6446609406726" y="30.004660940672622" width="78.35533905932738" height="70.71067811865476" as="geometry" />
        </mxCell>
        <mxCell id="nguoUykQNRSU8UTbQWAM-25" value="" style="shape=image;html=1;verticalAlign=top;verticalLabelPosition=bottom;labelBackgroundColor=#ffffff;imageAspect=0;aspect=fixed;image=https://cdn2.iconfinder.com/data/icons/weather-color-2/500/weather-01-128.png" vertex="1" parent="nguoUykQNRSU8UTbQWAM-28">
          <mxGeometry x="30.355339059327378" y="10.355339059327378" width="48" height="48" as="geometry" />
        </mxCell>
        <mxCell id="nguoUykQNRSU8UTbQWAM-27" value="" style="shape=image;html=1;verticalAlign=top;verticalLabelPosition=bottom;labelBackgroundColor=#ffffff;imageAspect=0;aspect=fixed;image=https://cdn2.iconfinder.com/data/icons/weather-color-2/500/weather-21-128.png;rotation=45;" vertex="1" parent="nguoUykQNRSU8UTbQWAM-28">
          <mxGeometry x="10.355339059327378" y="10.355339059327378" width="50" height="50" as="geometry" />
        </mxCell>
        <mxCell id="nguoUykQNRSU8UTbQWAM-29" value="" style="endArrow=none;dashed=1;html=1;rounded=0;" edge="1" parent="1">
          <mxGeometry width="50" height="50" relative="1" as="geometry">
            <mxPoint x="80" y="160" as="sourcePoint" />
            <mxPoint x="760" y="160" as="targetPoint" />
          </mxGeometry>
        </mxCell>
        <mxCell id="nguoUykQNRSU8UTbQWAM-30" value="" style="sketch=0;outlineConnect=0;fontColor=#007FFF;gradientColor=none;fillColor=#66B2FF;strokeColor=none;dashed=0;verticalLabelPosition=bottom;verticalAlign=top;align=center;html=1;fontSize=12;fontStyle=0;aspect=fixed;pointerEvents=1;shape=mxgraph.aws4.user;labelBorderColor=#007FFF;labelBackgroundColor=default;" vertex="1" parent="1">
          <mxGeometry x="90" y="22.72" width="78" height="78" as="geometry" />
        </mxCell>
        <mxCell id="nguoUykQNRSU8UTbQWAM-32" value="&lt;font color=&quot;#66b2ff&quot;&gt;USER&lt;/font&gt;" style="text;html=1;strokeColor=none;fillColor=none;align=center;verticalAlign=middle;whiteSpace=wrap;rounded=0;" vertex="1" parent="1">
          <mxGeometry x="96" y="110" width="60" height="30" as="geometry" />
        </mxCell>
        <mxCell id="nguoUykQNRSU8UTbQWAM-33" value="" style="endArrow=none;dashed=1;html=1;rounded=0;" edge="1" parent="1">
          <mxGeometry width="50" height="50" relative="1" as="geometry">
            <mxPoint x="80" y="340" as="sourcePoint" />
            <mxPoint x="760" y="340" as="targetPoint" />
          </mxGeometry>
        </mxCell>
        <mxCell id="nguoUykQNRSU8UTbQWAM-34" value="" style="ellipse;shape=cloud;whiteSpace=wrap;html=1;fillColor=default;strokeColor=#66B2FF;strokeWidth=3;" vertex="1" parent="1">
          <mxGeometry x="79.13" y="207.5" width="93.75" height="62.5" as="geometry" />
        </mxCell>
        <mxCell id="nguoUykQNRSU8UTbQWAM-35" value="&lt;font color=&quot;#66b2ff&quot;&gt;CLOUD&lt;/font&gt;" style="text;html=1;strokeColor=none;fillColor=none;align=center;verticalAlign=middle;whiteSpace=wrap;rounded=0;" vertex="1" parent="1">
          <mxGeometry x="96" y="280" width="60" height="30" as="geometry" />
        </mxCell>
        <mxCell id="nguoUykQNRSU8UTbQWAM-36" value="" style="html=1;verticalLabelPosition=bottom;align=center;labelBackgroundColor=#ffffff;verticalAlign=top;strokeWidth=2;strokeColor=#0080F0;shadow=0;dashed=0;shape=mxgraph.ios7.icons.home;" vertex="1" parent="1">
          <mxGeometry x="91.01" y="360" width="70" height="80" as="geometry" />
        </mxCell>
        <mxCell id="nguoUykQNRSU8UTbQWAM-37" value="&lt;font color=&quot;#66b2ff&quot;&gt;HOME&lt;/font&gt;" style="text;html=1;strokeColor=none;fillColor=none;align=center;verticalAlign=middle;whiteSpace=wrap;rounded=0;" vertex="1" parent="1">
          <mxGeometry x="96" y="445" width="60" height="30" as="geometry" />
        </mxCell>
        <mxCell id="nguoUykQNRSU8UTbQWAM-38" value="" style="group" vertex="1" connectable="0" parent="1">
          <mxGeometry x="616" y="20.5" width="116.66999999999996" height="105" as="geometry" />
        </mxCell>
        <mxCell id="nguoUykQNRSU8UTbQWAM-19" value="" style="verticalLabelPosition=bottom;html=1;verticalAlign=top;align=center;strokeColor=none;fillColor=#66B2FF;shape=mxgraph.azure.computer;pointerEvents=1;labelBackgroundColor=default;" vertex="1" parent="nguoUykQNRSU8UTbQWAM-38">
          <mxGeometry width="116.67" height="105" as="geometry" />
        </mxCell>
        <mxCell id="nguoUykQNRSU8UTbQWAM-22" value="" style="sketch=0;aspect=fixed;pointerEvents=1;shadow=0;dashed=0;html=1;strokeColor=none;labelPosition=center;verticalLabelPosition=bottom;verticalAlign=top;align=center;fillColor=#00188D;shape=mxgraph.mscae.general.graph" vertex="1" parent="nguoUykQNRSU8UTbQWAM-38">
          <mxGeometry x="44" y="17.5" width="50" height="50" as="geometry" />
        </mxCell>
        <mxCell id="nguoUykQNRSU8UTbQWAM-23" value="" style="html=1;verticalLabelPosition=bottom;align=center;labelBackgroundColor=#ffffff;verticalAlign=top;strokeWidth=2;strokeColor=#0080F0;shadow=0;dashed=0;shape=mxgraph.ios7.icons.gauge;" vertex="1" parent="nguoUykQNRSU8UTbQWAM-38">
          <mxGeometry x="16" y="17.5" width="20.57" height="20" as="geometry" />
        </mxCell>
        <mxCell id="nguoUykQNRSU8UTbQWAM-24" value="" style="html=1;verticalLabelPosition=bottom;align=center;labelBackgroundColor=#ffffff;verticalAlign=top;strokeWidth=2;strokeColor=#0080F0;shadow=0;dashed=0;shape=mxgraph.ios7.icons.gauge;" vertex="1" parent="nguoUykQNRSU8UTbQWAM-38">
          <mxGeometry x="16" y="47.5" width="20.57" height="20" as="geometry" />
        </mxCell>
      </root>
    </mxGraphModel>
  </diagram>
</mxfile>
